<?xml version="1.0" encoding="utf-8"?>
<!-- Generator: Adobe Illustrator 16.0.0, SVG Export Plug-In . SVG Version: 6.00 Build 0)  -->
<!DOCTYPE svg PUBLIC "-//W3C//DTD SVG 1.1//EN" "http://www.w3.org/Graphics/SVG/1.1/DTD/svg11.dtd">
<svg version="1.1" id="Layer_1" xmlns="http://www.w3.org/2000/svg" xmlns:xlink="http://www.w3.org/1999/xlink" x="0px" y="0px"
	 width="612px" height="792px" viewBox="0 0 612 792" enable-background="new 0 0 612 792" xml:space="preserve">
<radialGradient id="SVGID_1_" cx="204.25" cy="267.25" r="89.25" gradientUnits="userSpaceOnUse">
	<stop  offset="0" style="stop-color:#262262"/>
	<stop  offset="0.0036" style="stop-color:#2C2865"/>
	<stop  offset="0.0235" style="stop-color:#494375"/>
	<stop  offset="0.046" style="stop-color:#655D88"/>
	<stop  offset="0.0701" style="stop-color:#80789B"/>
	<stop  offset="0.0963" style="stop-color:#9992AF"/>
	<stop  offset="0.1253" style="stop-color:#B1ACC1"/>
	<stop  offset="0.158" style="stop-color:#C6C2D1"/>
	<stop  offset="0.1962" style="stop-color:#D7D5DE"/>
	<stop  offset="0.2434" style="stop-color:#E4E3E8"/>
	<stop  offset="0.3097" style="stop-color:#EDEDEF"/>
	<stop  offset="0.4937" style="stop-color:#F1F2F2"/>
	<stop  offset="1" style="stop-color:#262262"/>
</radialGradient>
<circle fill="url(#SVGID_1_)" stroke="#000000" stroke-miterlimit="10" cx="204.25" cy="267.25" r="89.25"/>
<radialGradient id="SVGID_2_" cx="204.25" cy="267.5" r="78.5" gradientUnits="userSpaceOnUse">
	<stop  offset="0" style="stop-color:#F7941E"/>
	<stop  offset="0.0664" style="stop-color:#F99C27"/>
	<stop  offset="0.1849" style="stop-color:#FAA735"/>
	<stop  offset="0.3255" style="stop-color:#FBAE3D"/>
	<stop  offset="0.5429" style="stop-color:#FBB040"/>
	<stop  offset="0.651" style="stop-color:#FBAD3C"/>
	<stop  offset="0.7511" style="stop-color:#FAA532"/>
	<stop  offset="0.8477" style="stop-color:#F89721"/>
	<stop  offset="0.867" style="stop-color:#F7941E"/>
</radialGradient>
<circle fill="url(#SVGID_2_)" stroke="#000000" stroke-miterlimit="10" cx="204.25" cy="267.5" r="78.5"/>
<g>
	<g>
		<path stroke="#000000" stroke-width="2" stroke-miterlimit="10" d="M200.85,279.769l0.753-1.095
			c5.659-8.034,9.175-12.051,10.544-12.051c1.324,0,1.986,0.616,1.986,1.849c0,0.685-0.411,1.506-1.232,2.465
			c-6.437,7.487-12.166,16.228-17.186,26.224c-0.777,1.506-1.507,2.26-2.191,2.26c-1.735,0-2.396-0.822-1.986-2.465
			c0.274-1.051,1.141-2.967,2.602-5.751c1.781-3.377,2.671-5.249,2.671-5.615c0-0.592-0.274-0.981-0.821-1.164
			c-0.32-0.091-1.096-0.137-2.328-0.137c-7.852,0-17.665,1.119-29.441,3.355c-6.392,1.232-11.321,2.442-14.789,3.629l-14.037,4.861
			c-0.592,0.182-1.141,0.274-1.643,0.274c-0.912,0-1.369-0.662-1.369-1.986c0-0.821,0.615-1.529,1.848-2.123
			c1.736-0.866,4.703-2.03,8.901-3.492c3.605-9.357,8.124-18.942,13.558-28.757c1.688-2.876,5.705-9.289,12.05-19.24
			c6.618-10.499,10.955-16.797,13.009-18.897c0.365-0.456,0.549-0.822,0.549-1.096c0-1.14-0.572-1.62-1.713-1.438
			c-1.552,0.274-4.336,0.959-8.353,2.054c-0.594,0.183-1.188,0.274-1.78,0.274c-1.051,0-1.574-0.57-1.574-1.711
			c0-0.867,0.89-1.644,2.67-2.328c6.253-2.328,15.861-4.268,28.825-5.82c10.681-1.232,20.859-1.849,30.537-1.849
			c2.328-3.423,3.788-5.546,4.382-6.368c1.506-1.962,2.783-2.944,3.834-2.944c1.05,0,1.575,0.64,1.575,1.917
			c0,0.457-1.62,3.059-4.861,7.805c-3.104,4.839-6.437,11.48-9.997,19.924c-0.639,1.553-1.438,2.328-2.396,2.328
			c-1.188,0-1.779-0.57-1.779-1.712c0-1.232,1.825-5.957,5.478-14.173c0.228-0.548,0.343-0.958,0.343-1.232
			c0-0.822-0.389-1.301-1.164-1.438c-0.274-0.045-0.891-0.068-1.85-0.068c-3.516,0-8.604,0.297-15.268,0.89
			c-5.98,0.503-10.522,1.073-13.626,1.711c-2.327,2.785-6.573,8.445-12.735,16.98c-3.834,5.296-5.751,8.422-5.751,9.38
			c0,0.548,0.296,0.914,0.89,1.095c0.456,0.092,2.441-0.113,5.957-0.616c5.432-0.821,11.023-1.277,16.775-1.369
			c3.925-6.253,6.754-9.38,8.49-9.38c1.003,0,1.506,0.64,1.506,1.917c0,0.457-0.229,1.004-0.685,1.643
			c-3.196,4.337-5.729,8.079-7.601,11.229c-1.598,2.785-3.721,6.893-6.367,12.324c-0.777,1.552-1.506,2.328-2.191,2.328
			c-1.369,0-2.054-0.524-2.054-1.575c0-1.37,0.821-3.561,2.465-6.573c1.734-3.149,2.602-5.135,2.602-5.957
			c0-1.095-0.73-1.643-2.19-1.643c-2.969,0-7.486,0.479-13.557,1.438c-4.018,0.594-6.848,1.073-8.49,1.438
			c-3.652,4.885-8.469,13.397-14.447,25.539c-1.826,3.744-2.738,6.162-2.738,7.258c0,1.643,0.729,2.465,2.19,2.465
			c0.729,0,2.761-0.342,6.094-1.027C176.338,281.07,188.707,279.815,200.85,279.769z"/>
	</g>
	<g>
		<path stroke="#000000" stroke-width="2" stroke-miterlimit="10" d="M266.923,247.986l0.933-1.466
			c1.732-2.754,3.133-4.841,4.198-6.264c0.888-1.11,1.776-1.666,2.665-1.666c0.934,0,1.4,0.6,1.4,1.799c0,0.489-0.2,1.089-0.6,1.799
			c-0.09,0.178-1.844,3.043-5.265,8.596c-2.355,3.688-5.021,9.196-7.997,16.526c-0.666,1.644-1.332,2.465-1.998,2.465
			c-1.467,0-2.199-0.533-2.199-1.599c0-1.421,1.266-4.886,3.798-10.395c0.533-1.2,0.8-2.154,0.8-2.865
			c0-2.443-3.821-3.665-11.461-3.665c-8.353,0-15.371,1.955-21.057,5.864c-4.133,2.844-6.197,5.887-6.197,9.129
			c0,2.577,1.133,5.331,3.398,8.263c1.51,1.866,4.819,5.242,9.928,10.128c3.021,2.888,5.42,5.598,7.197,8.13
			c1.999,2.888,2.998,6.13,2.998,9.729c0,5.909-2.555,11.285-7.662,16.126c-4.043,3.865-9.107,6.687-15.193,8.463
			c-4.088,1.199-8.396,1.799-12.928,1.799c-5.997,0-11.484-1.2-16.459-3.599c-1.377-0.622-2.998-1.51-4.864-2.666
			c-1.732,3.065-3.265,6.197-4.599,9.396c-0.488,1.199-1.266,1.799-2.332,1.799c-0.933,0-1.398-0.533-1.398-1.599
			c0-1.066,0.933-3.532,2.799-7.396c3.642-7.552,8.262-14.327,13.859-20.324c1.732-1.866,3.021-2.798,3.865-2.798
			c1.109,0,1.666,0.556,1.666,1.666c0,0.533-0.145,1-0.434,1.399c-0.289,0.4-1.299,1.578-3.031,3.532
			c-2.889,3.155-4.332,5.464-4.332,6.93c0,1.111,0.488,2.066,1.467,2.865c1.199,0.978,2.908,1.933,5.131,2.866
			c4.22,1.732,9.15,2.599,14.793,2.599c5.641,0,10.395-1.266,14.26-3.798c5.286-3.509,7.93-8.106,7.93-13.793
			c0-3.332-1.089-6.441-3.266-9.329c-1.51-1.999-4.197-4.864-8.063-8.596c-5.688-5.552-9.24-9.506-10.662-11.861
			c-1.599-2.576-2.398-5.086-2.398-7.53c0-5.197,2.976-9.817,8.93-13.86c7.685-5.153,18.191-7.73,31.519-7.73
			C259.881,247.053,263.502,247.364,266.923,247.986z"/>
	</g>
</g>
<g opacity="0.3">
	<g>
		<path stroke="#000000" stroke-width="2" stroke-miterlimit="10" d="M195.85,279.41l0.753-1.095
			c5.659-8.034,9.175-12.051,10.544-12.051c1.324,0,1.986,0.616,1.986,1.849c0,0.685-0.411,1.506-1.232,2.465
			c-6.437,7.487-12.166,16.228-17.186,26.224c-0.777,1.506-1.507,2.26-2.191,2.26c-1.735,0-2.396-0.822-1.986-2.465
			c0.274-1.051,1.141-2.967,2.602-5.751c1.781-3.377,2.671-5.249,2.671-5.615c0-0.592-0.274-0.981-0.821-1.164
			c-0.32-0.091-1.096-0.137-2.328-0.137c-7.852,0-17.665,1.119-29.441,3.355c-6.392,1.232-11.321,2.442-14.789,3.629l-14.037,4.861
			c-0.592,0.182-1.141,0.274-1.643,0.274c-0.912,0-1.369-0.662-1.369-1.986c0-0.821,0.615-1.529,1.848-2.123
			c1.736-0.866,4.703-2.03,8.901-3.492c3.605-9.357,8.124-18.942,13.558-28.757c1.688-2.876,5.705-9.289,12.05-19.24
			c6.618-10.499,10.955-16.797,13.009-18.897c0.365-0.456,0.549-0.822,0.549-1.096c0-1.14-0.572-1.62-1.713-1.438
			c-1.552,0.274-4.336,0.959-8.353,2.054c-0.594,0.183-1.188,0.274-1.78,0.274c-1.051,0-1.574-0.57-1.574-1.711
			c0-0.867,0.89-1.644,2.67-2.328c6.253-2.328,15.861-4.268,28.825-5.82c10.681-1.232,20.859-1.849,30.537-1.849
			c2.328-3.423,3.788-5.546,4.382-6.368c1.506-1.962,2.783-2.944,3.834-2.944c1.05,0,1.575,0.64,1.575,1.917
			c0,0.457-1.62,3.059-4.861,7.805c-3.104,4.839-6.437,11.48-9.997,19.924c-0.639,1.553-1.438,2.328-2.396,2.328
			c-1.188,0-1.779-0.57-1.779-1.712c0-1.232,1.825-5.957,5.478-14.173c0.228-0.548,0.343-0.958,0.343-1.232
			c0-0.822-0.389-1.301-1.164-1.438c-0.274-0.045-0.891-0.068-1.85-0.068c-3.516,0-8.604,0.297-15.268,0.89
			c-5.98,0.503-10.522,1.073-13.626,1.711c-2.327,2.785-6.573,8.445-12.735,16.98c-3.834,5.296-5.751,8.422-5.751,9.38
			c0,0.548,0.296,0.914,0.89,1.095c0.456,0.092,2.441-0.113,5.957-0.616c5.432-0.821,11.023-1.277,16.775-1.369
			c3.925-6.253,6.754-9.38,8.49-9.38c1.003,0,1.506,0.64,1.506,1.917c0,0.457-0.229,1.004-0.685,1.643
			c-3.196,4.337-5.729,8.079-7.601,11.229c-1.598,2.785-3.721,6.893-6.367,12.324c-0.777,1.552-1.506,2.328-2.191,2.328
			c-1.369,0-2.054-0.524-2.054-1.575c0-1.37,0.821-3.561,2.465-6.573c1.734-3.149,2.602-5.135,2.602-5.957
			c0-1.095-0.73-1.643-2.19-1.643c-2.969,0-7.486,0.479-13.557,1.438c-4.018,0.594-6.848,1.073-8.49,1.438
			c-3.652,4.885-8.469,13.397-14.447,25.539c-1.826,3.744-2.738,6.162-2.738,7.258c0,1.643,0.729,2.465,2.19,2.465
			c0.729,0,2.761-0.342,6.094-1.027C171.338,280.711,183.707,279.456,195.85,279.41z"/>
	</g>
	<g>
		<path stroke="#000000" stroke-width="2" stroke-miterlimit="10" d="M261.923,247.627l0.933-1.466
			c1.732-2.754,3.133-4.841,4.198-6.264c0.888-1.11,1.776-1.666,2.665-1.666c0.934,0,1.4,0.6,1.4,1.799c0,0.489-0.2,1.089-0.6,1.799
			c-0.09,0.178-1.844,3.043-5.265,8.596c-2.355,3.688-5.021,9.196-7.997,16.526c-0.666,1.644-1.332,2.465-1.998,2.465
			c-1.467,0-2.199-0.533-2.199-1.599c0-1.421,1.266-4.886,3.798-10.395c0.533-1.2,0.8-2.154,0.8-2.865
			c0-2.443-3.821-3.665-11.461-3.665c-8.353,0-15.371,1.955-21.057,5.864c-4.133,2.844-6.197,5.887-6.197,9.129
			c0,2.577,1.133,5.331,3.398,8.263c1.51,1.866,4.819,5.242,9.928,10.128c3.021,2.888,5.42,5.598,7.197,8.13
			c1.999,2.888,2.998,6.13,2.998,9.729c0,5.909-2.555,11.285-7.662,16.126c-4.043,3.865-9.107,6.687-15.193,8.463
			c-4.088,1.199-8.396,1.799-12.928,1.799c-5.997,0-11.484-1.2-16.459-3.599c-1.377-0.622-2.998-1.51-4.864-2.666
			c-1.732,3.065-3.265,6.197-4.599,9.396c-0.488,1.199-1.266,1.799-2.332,1.799c-0.933,0-1.398-0.533-1.398-1.599
			c0-1.066,0.933-3.532,2.799-7.396c3.642-7.552,8.262-14.327,13.859-20.324c1.732-1.866,3.021-2.798,3.865-2.798
			c1.109,0,1.666,0.556,1.666,1.666c0,0.533-0.145,1-0.434,1.399c-0.289,0.4-1.299,1.578-3.031,3.532
			c-2.889,3.155-4.332,5.464-4.332,6.93c0,1.111,0.488,2.066,1.467,2.865c1.199,0.978,2.908,1.933,5.131,2.866
			c4.22,1.732,9.15,2.599,14.793,2.599c5.641,0,10.395-1.266,14.26-3.798c5.286-3.509,7.93-8.106,7.93-13.793
			c0-3.332-1.089-6.441-3.266-9.329c-1.51-1.999-4.197-4.864-8.063-8.596c-5.688-5.552-9.24-9.506-10.662-11.861
			c-1.599-2.576-2.398-5.086-2.398-7.53c0-5.197,2.976-9.817,8.93-13.86c7.685-5.153,18.191-7.73,31.519-7.73
			C254.881,246.694,258.502,247.005,261.923,247.627z"/>
	</g>
</g>
</svg>
